<svg width="22" height="22" viewBox="0 0 22 22" fill="none" xmlns="http://www.w3.org/2000/svg">
<path id="Vector" d="M13.2222 14.3333V16.5556C13.2222 16.8502 13.1052 17.1329 12.8968 17.3412C12.6884 17.5496 12.4058 17.6667 12.1111 17.6667H4.33333L1 21V9.88889C1 9.5942 1.11706 9.31159 1.32544 9.10322C1.53381 8.89484 1.81643 8.77778 2.11111 8.77778H4.33333M21 13.2222L17.6667 9.88889H9.88889C9.5942 9.88889 9.31159 9.77183 9.10322 9.56345C8.89484 9.35508 8.77778 9.07246 8.77778 8.77778V2.11111C8.77778 1.81643 8.89484 1.53381 9.10322 1.32544C9.31159 1.11706 9.5942 1 9.88889 1H19.8889C20.1836 1 20.4662 1.11706 20.6746 1.32544C20.8829 1.53381 21 1.81643 21 2.11111V13.2222Z" stroke="#808080" stroke-width="2" stroke-linecap="round" stroke-linejoin="round"/>
</svg>
